<svg width="256" height="256" viewBox="0 0 256 256" fill="none" xmlns="http://www.w3.org/2000/svg" role="img" aria-labelledby="title desc">
  <title id="title">CriaVibe Fotografia</title>
  <desc id="desc">Icone de camera CriaVibe com lente em tons de roxo.</desc>
  <defs>
    <linearGradient id="body" x1="34" y1="46" x2="222" y2="214" gradientUnits="userSpaceOnUse">
      <stop offset="0" stop-color="#6b7280"/>
      <stop offset="0.48" stop-color="#111827"/>
      <stop offset="1" stop-color="#4f46e5"/>
    </linearGradient>
    <linearGradient id="lens" x1="79" y1="74" x2="178" y2="180" gradientUnits="userSpaceOnUse">
      <stop offset="0" stop-color="#111827"/>
      <stop offset="0.55" stop-color="#4c1d95"/>
      <stop offset="1" stop-color="#8b5cf6"/>
    </linearGradient>
    <linearGradient id="glow" x1="85" y1="190" x2="173" y2="190" gradientUnits="userSpaceOnUse">
      <stop offset="0" stop-color="#7c3aed" stop-opacity="0"/>
      <stop offset="0.5" stop-color="#a855f7"/>
      <stop offset="1" stop-color="#7c3aed" stop-opacity="0"/>
    </linearGradient>
    <filter id="softShadow" x="23" y="34" width="210" height="183" filterUnits="userSpaceOnUse" color-interpolation-filters="sRGB">
      <feDropShadow dx="0" dy="8" stdDeviation="7" flood-color="#312e81" flood-opacity="0.2"/>
    </filter>
  </defs>
  <g filter="url(#softShadow)">
    <path d="M50 90.5c0-15.2 12.3-27.5 27.5-27.5h26.3c5.5 0 10.7-2.6 14-7l8.2-11c5.1-6.8 13.1-10.8 21.6-10.8h34.7c8.7 0 16.8 4.2 21.9 11.2l8 11c3.3 4.5 8.5 7.2 14.1 7.2h15.2C224.7 63.6 237 75.9 237 91.1v88.4c0 15.2-12.3 27.5-27.5 27.5h-132C62.3 207 50 194.7 50 179.5v-89Z" stroke="url(#body)" stroke-width="15" stroke-linecap="round" stroke-linejoin="round"/>
    <path d="M24 80h22" stroke="url(#body)" stroke-width="14" stroke-linecap="round"/>
    <circle cx="143" cy="136" r="57" stroke="url(#lens)" stroke-width="15"/>
    <path d="M177.5 138.8c-4.5 24.9-26.3 43.8-52.5 43.8-12 0-23-4-31.9-10.8 11.4 17.3 31 28.7 53.3 28.7 28.4 0 52.4-18.6 60.7-44.2-8.2 6-18.4 9.6-29.6 9.6-27.6 0-50-22.4-50-50 0-11.2 3.6-21.4 9.7-29.7-25.7 8.2-44.3 32.3-44.3 60.7 0 10.6 2.6 20.5 7.1 29.2 1.2-26.5 23-47.6 49.8-47.6 10.7 0 20.5 3.4 28.7 9.1Z" fill="url(#lens)"/>
    <path d="M112 194c18.8 12.5 48.4 12.5 67 0" stroke="url(#glow)" stroke-width="10" stroke-linecap="round"/>
  </g>
</svg>
